<?xml version="1.0" encoding="UTF-8" standalone="no"?>
<!-- Generator: Adobe Illustrator 19.0.0, SVG Export Plug-In . SVG Version: 6.00 Build 0)  -->
<svg id="Layer_1" style="enable-background:new 0 0 46.9 58.1" xmlns="http://www.w3.org/2000/svg" xml:space="preserve" viewBox="0 0 46.9 58.1" version="1.1" y="0px" x="0px" xmlns:xlink="http://www.w3.org/1999/xlink">
<style type="text/css">
	.st0{fill:#FFCE00;}
	.st1{display:none;}
	.st2{display:inline;}
</style>
	<g id="XMLID_2_">
		<g id="XMLID_538_">
			<path id="XMLID_552_" d="m25.6 51.1c0 1.5 0.3 1.7 2.4 1.7 2.2 0 2.4-0.2 2.4-1.7 0-1.1-0.1-1.4-1-1.5 0.7-0.1 0.9-0.5 0.9-1.4 0-1.5-0.2-1.7-2.3-1.7s-2.3 0.2-2.3 1.7c0 0.9 0.1 1.3 0.9 1.4-0.8 0-1 0.4-1 1.5zm2.5-3.8c1 0 1.1 0.1 1.1 0.9s-0.1 0.9-1.1 0.9-1.1-0.1-1.1-0.9 0.1-0.9 1.1-0.9zm0 2.7c1.1 0 1.2 0.1 1.2 1 0 0.8-0.1 0.9-1.2 0.9s-1.2-0.1-1.2-0.9c-0.1-0.9 0.1-1 1.2-1z" class="st0"/>
			<path id="XMLID_548_" d="m15.3 51.1c0 1.5 0.3 1.7 2.4 1.7 2.2 0 2.4-0.2 2.4-1.7 0-1.1-0.1-1.4-1-1.5 0.7-0.1 0.9-0.5 0.9-1.4 0-1.5-0.2-1.7-2.3-1.7s-2.3 0.2-2.3 1.7c0 0.9 0.1 1.3 0.9 1.4-0.9 0-1 0.4-1 1.5zm2.4-3.8c1 0 1.1 0.1 1.1 0.9s-0.1 0.9-1.1 0.9-1.1-0.1-1.1-0.9 0.1-0.9 1.1-0.9zm0 2.7c1.1 0 1.2 0.1 1.2 1 0 0.8-0.1 0.9-1.2 0.9s-1.2-0.1-1.2-0.9c0-0.9 0.1-1 1.2-1z" class="st0"/>
			<path id="XMLID_547_" d="m38.4 51.9c-1.1 0-1.2-0.1-1.2-0.9h-1.2c0 1.5 0.2 1.7 2.4 1.8 2.1 0 2.4-0.2 2.4-1.9s-0.3-1.9-2.2-1.9c-0.6 0-0.9 0-1.2 0.1v-1.7h2.2l0.1 0.7h1v-1.6h-4.3l-0.2 3.5c0.7-0.1 1.2-0.1 2.1-0.1 1.2 0 1.3 0.2 1.3 1.1-0.1 0.8-0.2 0.9-1.2 0.9z" class="st0"/>
			<path id="XMLID_546_" d="m35.1 7.1c0.1-0.1 0.2-0.3 0.3-0.5-0.1-0.2-0.2-0.5-0.3-0.6-0.1 0-0.5 0.5-0.7 1.1h0.7z" class="st0"/>
			<polygon id="XMLID_545_" points="7.7 47.5 7.7 51.8 6.3 51.9 6.3 52.7 10.1 52.7 10.1 51.9 8.9 51.8 8.9 46.5 8.4 46.5 8.4 46.5 6.2 46.9 6.3 47.7" class="st0"/>
			<path id="XMLID_539_" d="m0 0v58.1h46.9v-58.1h-46.9zm1.8 1.9h43.4v35.9l-0.6-0.8-1.6-1.4-2.5-1.4-1.2-0.2-1.1-0.2s-1.1-0.8-1.5-0.8-1.2 0.5-1.2 0.5h-0.9l-0.3 0.2c-0.2-0.3-0.3-0.7-0.3-0.8-0.1-0.5-0.2-1.1-0.2-1.2 0-0.2-0.1-0.9-0.1-1.3 0-0.3-0.3-1.3-0.3-1.3l-0.1-3.9c-0.4 0.4-0.8 0.7-1.2 0.9 0 0-0.9 3.3-0.6 5.5 0.1 0.2 0.2 0.4 0.2 0.6 0.1 0.3 0.5 1.1 0.7 1.7 0.1 0.2 0.2 0.5 0.2 0.7l-0.1 0.1c-0.1-0.1-0.1-0.3-0.2-0.4-0.2-0.3-1.1-0.2-1.3-0.3-0.1-0.1-0.2-0.4-0.2-0.6v-0.1-0.3-0.9s0.1-5.4 0.6-7.4v-0.1s1.5 0 3.1-1.9c0.5-0.7 1.1-1.8 1.3-2.3 0-0.1 0.1-0.3 0.1-0.4-0.1-0.4-0.4-0.8-0.6-1 0 0 0.5 0 0.8 0.1 0-0.2 0-0.5-0.1-0.7-0.2-0.6 0.4-1.4 0.7-1.7 0.3-0.2 0.3-0.8 0.3-0.9s-0.1-0.3-0.1-0.6c0 0-0.3-1.1-0.2-1.7 0 0 0 0.9 0.8 1h0.2c0.3 0 0.7 0.1 0.9 0.1 0.5 0.1 0.7-0.7 0.7-0.7s0.3-0.2 0.6-0.6c0.3-0.3 0.5-0.4 0.4-0.8s-2.2-2-2.2-2 0 0 0 0c-0.4-0.3-0.8-0.6-1-0.7 0 0 0.3-0.2 0.5-0.1s0 0.2 0.5 0.6c0-0.2 0-0.5-0.1-0.8s-1-1.1-1.4-1.5l-0.3 0.7 0.2-2c0-0.5 0-1-0.1-1.2-0.1-0.3-0.4 0-0.7 0.4-0.3 0.5-0.7 1.4-0.7 1.4s-0.5 0-1 0h-0.7-0.1c-0.3 0.1-0.6 0.2-0.8 0.4-0.6 0.5-2 2.4-2 2.4s-1.4 1.5-1.7 1.7c-0.3 0.2-0.7 0.7-1.5 0.9l-0.2 0.6c0 0.3 0 0.6 0.2 0.9l-0.6-0.4c-1 0.7-3.5 2.1-3.8 2.3s-1.5 1.1-2.5 1.2c0 0-6.3 1.3-6.6 1.9-1.4 0.6-1.9 1.5-2.1 2.1-0.3 0.6-1 2.8-1.9 4.2-0.8 1.5-3.5 3-3.9 3.3s-0.9 0.2-0.2 1c0.7 0.7 2.5 0.5 3.8 0 0.1 0 0.1 0 0.2-0.1 0.1 0 0.1-0.1 0.2-0.1 0.2-0.1 0.3-0.2 0.5-0.3 0.7-0.7 1.2-2 1.2-2 0-0.1-0.1-0.2-0.1-0.3-0.2-0.4-0.3-1.2 0.3-2-0.1 0.9 0.1 1.8 0.9 2.4 0.3 0.2 0.4 0.6 0.4 0.6 0.3 1-0.5 2.2-1.2 2.8-0.5 0.5-0.5 0.5-0.5 1 0 0 1.5 4.4 1 6l-0.9 0.3s0.4-2.8-0.1-4.9c0 0.5-0.1 1-0.1 1.5 0 0-0.3 2.3-0.6 2.8-0.1 0.2-0.1 0.5 0 0.8l-1.1 0.3s-1.5 0.5-1.7 0.6-1.1 0-1.1 0-1.4 0-1.7 0.1c-0.3 0-1.4 0.6-1.4 0.6h-0.9l-1.2 0.4v-38.4zm27.4 33.4l-0.9 0.4-2.6 0.7-2.1 0.3s-1.5 0.1-2-0.2c-0.4-0.3-1.9-0.1-2-0.1s-1.2 0.3-1.9 0.5c-0.2 0.1-0.5 0.2-0.7 0.2-0.4-0.3-1.2-0.8-2.4-0.9 0 0-0.1-0.2-0.2-0.5 0-0.3-0.2-3-0.1-3.6s1.6-1.6 2.9-2.7 1.6-2.5 1.6-2.5 0.4-0.6 0.8-0.9c0.4-0.2 1.6 0 2.4 0.3s5.4 0.1 5.4 0.1c0 0.7 0.7 3.9 0.9 4.7 0.1 0.5 0.4 1.7 0.6 2.5s0.3 1.6 0.3 1.7zm15.9 21h-43.3v-13.5h43.4v13.5z" class="st0"/>
		</g>
	</g>
	<g id="XMLID_29_" class="st1">
		<g id="XMLID_482_" class="st2">
			<path id="XMLID_536_" d="m236.6 25.2h-3.4l-0.3-4.2h-3.5l-1.1 0.1v16.4l2.7 0.2v3.2h-9.9v-3.2l2.7-0.2v-16.4l-1.1-0.1h-3.5l-0.3 4.2h-3.4v-7.4h21v7.4z" class="st0"/>
			<path id="XMLID_533_" d="m247.4 35.9l3.5-0.2c0 4.1-1 5.3-6.8 5.3-6 0-7.2-1.4-7.2-8.4s1.1-8.3 7.1-8.3 6.9 1.2 6.9 8.6c0 0.7-0.2 0.9-0.9 0.9h-9.4c0.1 3.9 0.6 4.4 3.4 4.4 3 0.1 3.4-0.4 3.4-2.3zm-6.7-4.4h6.7c-0.1-3.8-0.7-4.3-3.3-4.3-2.7-0.1-3.3 0.4-3.4 4.3z" class="st0"/>
			<path id="XMLID_531_" d="m267 29.9l-3.6 0.2c0-2.1-0.5-2.7-3.3-2.7-3 0-3.4 0.7-3.4 5.4s0.4 5.4 3.4 5.4c2.8 0 3.3-0.5 3.3-2.6l3.6-0.2c0 4.6-0.9 5.7-6.9 5.7s-7.2-1.4-7.2-8.4 1.1-8.3 7.2-8.3c5.8 0 6.9 1.1 6.9 5.5z" class="st0"/>
			<path id="XMLID_529_" d="m287.4 40.8h-8.5v-2.7l2.3-0.2v-7.7c0-2.1-0.6-2.7-2.7-2.7-1.3 0-2.2 0.3-4 1.2v9.1l2.3 0.2v2.7h-8.5v-2.7l2.3-0.2v-16.8l-2.3-0.1v-2.8h6.2v8.6c1.5-1.4 3.4-2.4 6-2.4 3.4 0 4.6 1.1 4.6 4.9v8.7l2.3 0.2v2.7z" class="st0"/>
			<g id="XMLID_5_">
				<path id="XMLID_527_" d="m93.8 40.8h-9.5v-3.2l2.4-0.2v-15.7l-6 19.1h-4.4l-6.1-18.9v15.5l2.5 0.2v3.2h-9.5v-3.2l2.7-0.2v-16.3l-2.6-0.2v-3.2h10.1l4.6 15.1c0.3 0.9 0.5 1.7 0.7 2.6 0.2-0.9 0.4-1.7 0.7-2.6l4.5-15.1h9.8v3.2l-2.7 0.2v16.4l2.7 0.2v3.1z" class="st0"/>
				<path id="XMLID_525_" d="m104.5 40.8h-8.5v-2.7l2.3-0.2v-10.4l-2.3-0.1v-2.8h6.2v13.3l2.3 0.2v2.7z" class="st0"/>
				<path id="XMLID_523_" d="m120.2 29.9l-3.6 0.2c0-2.1-0.5-2.7-3.3-2.7-3 0-3.4 0.7-3.4 5.4s0.4 5.4 3.4 5.4c2.8 0 3.3-0.5 3.3-2.6l3.6-0.2c0 4.6-0.9 5.7-6.9 5.7s-7.2-1.4-7.2-8.4 1.1-8.3 7.2-8.3c5.9 0 6.9 1.1 6.9 5.5z" class="st0"/>
				<path id="XMLID_495_" d="m141.4 40.8h-8.6v-2.8l2.3-0.2v-7.8c0-2.1-0.6-2.7-2.7-2.7-1.3 0-2.3 0.3-4.1 1.2v9.3l2.3 0.2v2.8h-8.6v-2.8l2.3-0.2v-17.1l-2.3-0.1v-2.8h6.3v8.7c1.5-1.4 3.4-2.4 6.1-2.4 3.4 0 4.7 1.1 4.7 5v8.8l2.3 0.2v2.7z" class="st0"/>
				<path id="XMLID_493_" d="m151.9 40.8h-8.5v-2.7l2.3-0.2v-10.4l-2.3-0.1v-2.8h6.2v13.3l2.3 0.2v2.7z" class="st0"/>
				<path id="XMLID_490_" d="m168.6 27.5v12.9c0 5.4-1.3 6.6-7.5 6.6-5.7 0-6.8-1.1-6.8-5.1l3.5-0.2c0 1.8 0.5 2.4 3.2 2.4 3.1 0 3.6-0.9 3.6-3.8v-2.3c-1.7 1.9-2.8 2.4-5.2 2.4-4.2 0-5.7-1.3-5.7-8 0-6.6 1.5-8 5.7-8 2.5 0 3.7 0.4 5.2 2.1v-1.8h6.2v2.7l-2.2 0.1zm-3.9 8.7v-7.8c-1.1-0.7-2-0.8-3.9-0.8-2.8 0-3.4 0.6-3.4 4.8s0.6 4.8 3.4 4.8c1.9-0.1 2.7-0.3 3.9-1z" class="st0"/>
				<path id="XMLID_487_" d="m189.2 40.8h-5.9l-0.2-2.4c-1.8 1.9-3.5 2.6-5.8 2.6-3.5 0-5-2-5-4.7 0-2.8 1.1-5 8.2-5h2.5v-0.9c0-2.5-0.5-3.3-3.3-3.3-2.6 0-3.1 0.6-3.1 2.3l-3.6 0.2c0-4 1.2-5.3 6.8-5.3 5.7 0 7 1.3 7 6.1v7.5l2.3 0.1v2.8zm-10.7-2.6c1.8 0 3-0.6 4.5-2.1v-2.5h-2c-4.3 0-5 1.1-5 2.5 0 1.1 0.7 2.1 2.5 2.1z" class="st0"/>
				<path id="XMLID_485_" d="m210.4 40.8h-8.5v-2.7l2.3-0.2v-7.7c0-2.1-0.6-2.7-2.7-2.7-1.3 0-2.2 0.3-4 1.2v9.1l2.3 0.2v2.7h-8.5v-2.7l2.3-0.2v-10.3l-2.3-0.2v-2.7h6.2v2.1c1.5-1.4 3.4-2.4 6-2.4 3.4 0 4.6 1.1 4.6 4.9v8.7l2.3 0.2v2.7z" class="st0"/>
				<path id="XMLID_484_" d="m97.8 20.1c0-1.8 0.3-2.1 2.4-2.1 2 0 2.3 0.3 2.3 2.1s-0.3 2.1-2.3 2.1c-2.1-0.1-2.4-0.4-2.4-2.1z" class="st0"/>
				<path id="XMLID_483_" d="m145.2 20.1c0-1.8 0.3-2.1 2.4-2.1 2 0 2.3 0.3 2.3 2.1s-0.3 2.1-2.3 2.1c-2.1-0.1-2.4-0.4-2.4-2.1z" class="st0"/>
			</g>
		</g>
	</g>
</svg>
